# xmcd
#
# Track frame offsets: 
#        150
#        14909
#        29288
#        39545
#        53895
#        69406
#        83015
#        100205
#        109953
#        119321
#        130525
#        147003
#        162511
#        179214
#        189888
#
# Disc length: 2821 seconds
#
# Revision: 5
# Processed by: cddbd v1.5.2PL0 Copyright (c) Steve Scherf et al.
# Submitted via: ExactAudioCopy v0.99pb5
#
DISCID=cf0b030f
DTITLE=Various Artist - Classic Country - TL 626-34 - Leading Ladies - CD 2
DYEAR=2002
DGENRE=Country
TTITLE0=Rosanne Cash - My baby thinks he's a train
TTITLE1=Lynn Anderson - Cry
TTITLE2=Charly McClain - Who's cheatin' who
TTITLE3=Lacy J. Dalton - 16th Avenue
TTITLE4=Barbara Mandrell - Woman to woman
TTITLE5=Jean Shepard - Then he touched me
TTITLE6=Jeannie C. Riley - Oh, singer
TTITLE7=Rose Maddox - Sing a little song of heartache
TTITLE8=Loretta Lynn - Your squaw is on the warpath
TTITLE9=Kitty Wells - Will your lawyer talk to God
TTITLE10=Janie Frickie - It ain't easy being easy
TTITLE11=Barbara Fairchild - Baby doll
TTITLE12=Emmylou Harris - Save the last dance for me
TTITLE13=Jessi Colter - What's happened to blue eyes
TTITLE14=Tanya Tucker - Texas (when I die)
EXTD=YEAR: 2002
EXTT0=
EXTT1=
EXTT2=
EXTT3=
EXTT4=
EXTT5=
EXTT6=
EXTT7=
EXTT8=
EXTT9=
EXTT10=
EXTT11=
EXTT12=
EXTT13=
EXTT14=
PLAYORDER=
